ffmpeg started on 2025-06-19 at 12:09:23
Report written to "D:\Convert\FFMetrics\reports\psnr_report-6.txt"
Log level: 32
Command line:
ffmpeg -hide_banner -nostdin -i "G:\\\xc0\xed\xe8\xec\xe5\\[\xd2\xee\xef-4]\\Fate\\\xc0\xef\xee\xea\xf0\xe8\xf4\\Fate_Apocrypha_[23]_[AniLibria_TV]_[HDTVRip_720p]_HEVC.mkv" -i "G:\\\xc0\xed\xe8\xec\xe5\\[\xd2\xee\xef-4]\\Fate\\\xc0\xef\xee\xea\xf0\xe8\xf4\\Fate_Apocrypha_[23]_[AniLibria_TV]_[HDTVRip_720p].mkv" -lavfi "[0:v]settb=AVTB,setpts=PTS-STARTPTS,format=pix_fmts=yuv420p10,fps=24000/1001,scale=1280:720:flags=bicubic[main];[1:v]settb=AVTB,setpts=PTS-STARTPTS,format=pix_fmts=yuv420p,fps=24000/1001,scale=1280:720:flags=bicubic[ref];[main][ref]psnr=eof_action=endall:stats_file='D\\:/Convert/FFMetrics/logs/psnr_logfile-6.txt'" -f null -
Input #0, matroska,webm, from 'G:\Аниме\[Топ-4]\Fate\Апокриф\Fate_Apocrypha_[23]_[AniLibria_TV]_[HDTVRip_720p]_HEVC.mkv':
  Metadata:
    ENCODER         : Lavf61.7.100
  Duration: 00:24:00.11, start: -0.021000, bitrate: 764 kb/s
  Stream #0:0(jpn): Video: hevc (Main 10), yuv420p10le(tv, bt709, progressive), 1280x720 [SAR 1:1 DAR 16:9], 23.81 fps, 23.81 tbr, 1k tbn (default)
      Metadata:
        ENCODER         : Lavc61.19.100 libx265
        BPS             : 566487
        DURATION        : 00:24:00.012000000
        NUMBER_OF_FRAMES: 34525
        NUMBER_OF_BYTES : 101968626
        _STATISTICS_WRITING_APP: mkvpropedit v66.0.0 ('Josie') 64-bit
        _STATISTICS_WRITING_DATE_UTC: 2025-06-17 07:48:23
        _STATISTICS_TAGS: BPS DURATION NUMBER_OF_FRAMES NUMBER_OF_BYTES
  Stream #0:1(rus): Audio: aac (LC), 48000 Hz, stereo, fltp (default)
      Metadata:
        title           : Ados Amikiri Anzen Hekomi Silv
        ENCODER         : Lavc61.19.100 aac
        BPS             : 194057
        DURATION        : 00:24:00.085000000
        NUMBER_OF_FRAMES: 67505
        NUMBER_OF_BYTES : 34932456
        _STATISTICS_WRITING_APP: mkvpropedit v66.0.0 ('Josie') 64-bit
        _STATISTICS_WRITING_DATE_UTC: 2025-06-17 07:48:23
        _STATISTICS_TAGS: BPS DURATION NUMBER_OF_FRAMES NUMBER_OF_BYTES
  Stream #0:2(rus): Subtitle: ass (ssa) (default) (forced)
      Metadata:
        title           : Надписи
        BPS             : 448
        DURATION        : 00:00:03.000000000
        NUMBER_OF_FRAMES: 2
        NUMBER_OF_BYTES : 168
        _STATISTICS_WRITING_APP: mkvpropedit v66.0.0 ('Josie') 64-bit
        _STATISTICS_WRITING_DATE_UTC: 2025-06-17 07:48:23
        _STATISTICS_TAGS: BPS DURATION NUMBER_OF_FRAMES NUMBER_OF_BYTES
  Stream #0:3(rus): Subtitle: ass (ssa)
      Metadata:
        title           : Полные
        BPS             : 124
        DURATION        : 00:22:13.710000000
        NUMBER_OF_FRAMES: 278
        NUMBER_OF_BYTES : 20798
        _STATISTICS_WRITING_APP: mkvpropedit v66.0.0 ('Josie') 64-bit
        _STATISTICS_WRITING_DATE_UTC: 2025-06-17 07:48:23
        _STATISTICS_TAGS: BPS DURATION NUMBER_OF_FRAMES NUMBER_OF_BYTES
Input #1, matroska,webm, from 'G:\Аниме\[Топ-4]\Fate\Апокриф\Fate_Apocrypha_[23]_[AniLibria_TV]_[HDTVRip_720p].mkv':
  Metadata:
    encoder         : libebml v1.3.0 + libmatroska v1.4.1
    creation_time   : 2017-12-18T19:56:57.000000Z
  Duration: 00:24:00.09, start: 0.000000, bitrate: 2288 kb/s
  Stream #1:0: Video: h264 (Main), yuv420p(tv, bt709, progressive), 1280x720, SAR 1:1 DAR 16:9, 23.81 fps, 23.81 tbr, 1k tbn (default)
      Metadata:
        BPS             : 1877855
        BPS-eng         : 1877855
        DURATION        : 00:24:00.017000000
        DURATION-eng    : 00:24:00.017000000
        NUMBER_OF_FRAMES: 34525
        NUMBER_OF_FRAMES-eng: 34525
        NUMBER_OF_BYTES : 338018006
        NUMBER_OF_BYTES-eng: 338018006
        _STATISTICS_WRITING_APP: mkvmerge v7.3.0 ('Nouages') 64bit built on Oct 22 2014 18:53:34
        _STATISTICS_WRITING_APP-eng: mkvmerge v7.3.0 ('Nouages') 64bit built on Oct 22 2014 18:53:34
        _STATISTICS_WRITING_DATE_UTC: 2017-12-18 19:56:57
        _STATISTICS_WRITING_DATE_UTC-eng: 2017-12-18 19:56:57
        _STATISTICS_TAGS: BPS DURATION NUMBER_OF_FRAMES NUMBER_OF_BYTES
        _STATISTICS_TAGS-eng: BPS DURATION NUMBER_OF_FRAMES NUMBER_OF_BYTES
  Stream #1:1(rus): Audio: aac (LC), 48000 Hz, stereo, fltp (default)
      Metadata:
        title           : Ados Amikiri Anzen Hekomi Silv
        BPS             : 192092
        BPS-eng         : 192092
        DURATION        : 00:24:00.085000000
        DURATION-eng    : 00:24:00.085000000
        NUMBER_OF_FRAMES: 67504
        NUMBER_OF_FRAMES-eng: 67504
        NUMBER_OF_BYTES : 34578775
        NUMBER_OF_BYTES-eng: 34578775
        _STATISTICS_WRITING_APP: mkvmerge v7.3.0 ('Nouages') 64bit built on Oct 22 2014 18:53:34
        _STATISTICS_WRITING_APP-eng: mkvmerge v7.3.0 ('Nouages') 64bit built on Oct 22 2014 18:53:34
        _STATISTICS_WRITING_DATE_UTC: 2017-12-18 19:56:57
        _STATISTICS_WRITING_DATE_UTC-eng: 2017-12-18 19:56:57
        _STATISTICS_TAGS: BPS DURATION NUMBER_OF_FRAMES NUMBER_OF_BYTES
        _STATISTICS_TAGS-eng: BPS DURATION NUMBER_OF_FRAMES NUMBER_OF_BYTES
  Stream #1:2(jpn): Audio: aac (LC), 48000 Hz, stereo, fltp
      Metadata:
        title           : Оригинал
        BPS             : 214282
        BPS-eng         : 214282
        DURATION        : 00:24:00.064000000
        DURATION-eng    : 00:24:00.064000000
        NUMBER_OF_FRAMES: 67503
        NUMBER_OF_FRAMES-eng: 67503
        NUMBER_OF_BYTES : 38572536
        NUMBER_OF_BYTES-eng: 38572536
        _STATISTICS_WRITING_APP: mkvmerge v7.3.0 ('Nouages') 64bit built on Oct 22 2014 18:53:34
        _STATISTICS_WRITING_APP-eng: mkvmerge v7.3.0 ('Nouages') 64bit built on Oct 22 2014 18:53:34
        _STATISTICS_WRITING_DATE_UTC: 2017-12-18 19:56:57
        _STATISTICS_WRITING_DATE_UTC-eng: 2017-12-18 19:56:57
        _STATISTICS_TAGS: BPS DURATION NUMBER_OF_FRAMES NUMBER_OF_BYTES
        _STATISTICS_TAGS-eng: BPS DURATION NUMBER_OF_FRAMES NUMBER_OF_BYTES
  Stream #1:3(rus): Subtitle: ass (ssa) (default) (forced)
      Metadata:
        title           : Надписи
        BPS             : 448
        BPS-eng         : 448
        DURATION        : 00:00:03.000000000
        DURATION-eng    : 00:00:03.000000000
        NUMBER_OF_FRAMES: 2
        NUMBER_OF_FRAMES-eng: 2
        NUMBER_OF_BYTES : 168
        NUMBER_OF_BYTES-eng: 168
        _STATISTICS_WRITING_APP: mkvmerge v7.3.0 ('Nouages') 64bit built on Oct 22 2014 18:53:34
        _STATISTICS_WRITING_APP-eng: mkvmerge v7.3.0 ('Nouages') 64bit built on Oct 22 2014 18:53:34
        _STATISTICS_WRITING_DATE_UTC: 2017-12-18 19:56:57
        _STATISTICS_WRITING_DATE_UTC-eng: 2017-12-18 19:56:57
        _STATISTICS_TAGS: BPS DURATION NUMBER_OF_FRAMES NUMBER_OF_BYTES
        _STATISTICS_TAGS-eng: BPS DURATION NUMBER_OF_FRAMES NUMBER_OF_BYTES
  Stream #1:4(rus): Subtitle: ass (ssa)
      Metadata:
        title           : Полные
        BPS             : 124
        BPS-eng         : 124
        DURATION        : 00:22:13.710000000
        DURATION-eng    : 00:22:13.710000000
        NUMBER_OF_FRAMES: 278
        NUMBER_OF_FRAMES-eng: 278
        NUMBER_OF_BYTES : 20798
        NUMBER_OF_BYTES-eng: 20798
        _STATISTICS_WRITING_APP: mkvmerge v7.3.0 ('Nouages') 64bit built on Oct 22 2014 18:53:34
        _STATISTICS_WRITING_APP-eng: mkvmerge v7.3.0 ('Nouages') 64bit built on Oct 22 2014 18:53:34
        _STATISTICS_WRITING_DATE_UTC: 2017-12-18 19:56:57
        _STATISTICS_WRITING_DATE_UTC-eng: 2017-12-18 19:56:57
        _STATISTICS_TAGS: BPS DURATION NUMBER_OF_FRAMES NUMBER_OF_BYTES
        _STATISTICS_TAGS-eng: BPS DURATION NUMBER_OF_FRAMES NUMBER_OF_BYTES
Stream mapping:
  Stream #0:0 (hevc) -> settb:default
  Stream #1:0 (h264) -> settb:default
  psnr:default -> Stream #0:0 (wrapped_avframe)
  Stream #0:1 -> #0:1 (aac (native) -> pcm_s16le (native))
Output #0, null, to 'pipe:':
  Metadata:
    encoder         : Lavf61.7.100
  Stream #0:0: Video: wrapped_avframe, yuv420p10le(tv, bt709, progressive), 1280x720 [SAR 1:1 DAR 16:9], q=2-31, 200 kb/s, 23.98 fps, 23.98 tbn
      Metadata:
        encoder         : Lavc61.19.100 wrapped_avframe
  Stream #0:1(rus): Audio: pcm_s16le, 48000 Hz, stereo, s16, 1536 kb/s (default)
      Metadata:
        title           : Ados Amikiri Anzen Hekomi Silv
        _STATISTICS_TAGS: BPS DURATION NUMBER_OF_FRAMES NUMBER_OF_BYTES
        BPS             : 194057
        DURATION        : 00:24:00.085000000
        NUMBER_OF_FRAMES: 67505
        NUMBER_OF_BYTES : 34932456
        _STATISTICS_WRITING_APP: mkvpropedit v66.0.0 ('Josie') 64-bit
        _STATISTICS_WRITING_DATE_UTC: 2025-06-17 07:48:23
        encoder         : Lavc61.19.100 pcm_s16le
frame=  457 fps=0.0 q=-0.0 size=N/A time=00:00:19.06 bitrate=N/A speed=37.8x    frame=  914 fps=890 q=-0.0 size=N/A time=00:00:38.12 bitrate=N/A speed=37.1x    frame= 1422 fps=919 q=-0.0 size=N/A time=00:00:59.30 bitrate=N/A speed=38.3x    frame= 1896 fps=921 q=-0.0 size=N/A time=00:01:19.07 bitrate=N/A speed=38.4x    frame= 2374 fps=926 q=-0.0 size=N/A time=00:01:39.01 bitrate=N/A speed=38.6x    frame= 2799 fps=905 q=-0.0 size=N/A time=00:01:56.74 bitrate=N/A speed=37.8x    frame= 3230 fps=895 q=-0.0 size=N/A time=00:02:14.71 bitrate=N/A speed=37.3x    frame= 3658 fps=888 q=-0.0 size=N/A time=00:02:32.56 bitrate=N/A speed=  37x    frame= 4094 fps=883 q=-0.0 size=N/A time=00:02:50.75 bitrate=N/A speed=36.8x    frame= 4435 fps=862 q=-0.0 size=N/A time=00:03:04.97 bitrate=N/A speed=35.9x    frame= 4844 fps=854 q=-0.0 size=N/A time=00:03:22.03 bitrate=N/A speed=35.6x    frame= 5347 fps=865 q=-0.0 size=N/A time=00:03:43.01 bitrate=N/A speed=36.1x    frame= 5734 fps=857 q=-0.0 size=N/A time=00:03:59.15 bitrate=N/A speed=35.7x    frame= 6211 fps=860 q=-0.0 size=N/A time=00:04:19.05 bitrate=N/A speed=35.9x    frame= 6772 fps=876 q=-0.0 size=N/A time=00:04:42.44 bitrate=N/A speed=36.5x    frame= 7160 fps=869 q=-0.0 size=N/A time=00:04:58.63 bitrate=N/A speed=36.2x    frame= 7559 fps=862 q=-0.0 size=N/A time=00:05:15.27 bitrate=N/A speed=  36x    frame= 7923 fps=854 q=-0.0 size=N/A time=00:05:30.45 bitrate=N/A speed=35.6x    frame= 8310 fps=849 q=-0.0 size=N/A time=00:05:46.59 bitrate=N/A speed=35.4x    frame= 8690 fps=843 q=-0.0 size=N/A time=00:06:02.44 bitrate=N/A speed=35.2x    frame= 9057 fps=837 q=-0.0 size=N/A time=00:06:17.75 bitrate=N/A speed=34.9x    frame= 9477 fps=836 q=-0.0 size=N/A time=00:06:35.26 bitrate=N/A speed=34.8x    frame= 9839 fps=830 q=-0.0 size=N/A time=00:06:50.36 bitrate=N/A speed=34.6x    frame=10303 fps=833 q=-0.0 size=N/A time=00:07:09.72 bitrate=N/A speed=34.8x    frame=10832 fps=840 q=-0.0 size=N/A time=00:07:31.78 bitrate=N/A speed=35.1x    frame=11349 fps=847 q=-0.0 size=N/A time=00:07:53.34 bitrate=N/A speed=35.3x    frame=11968 fps=860 q=-0.0 size=N/A time=00:08:19.16 bitrate=N/A speed=35.9x    frame=12462 fps=863 q=-0.0 size=N/A time=00:08:39.76 bitrate=N/A speed=  36x    frame=12939 fps=866 q=-0.0 size=N/A time=00:08:59.66 bitrate=N/A speed=36.1x    frame=13468 fps=871 q=-0.0 size=N/A time=00:09:21.72 bitrate=N/A speed=36.3x    frame=13965 fps=874 q=-0.0 size=N/A time=00:09:42.45 bitrate=N/A speed=36.5x    frame=14551 fps=882 q=-0.0 size=N/A time=00:10:06.89 bitrate=N/A speed=36.8x    frame=14895 fps=876 q=-0.0 size=N/A time=00:10:21.24 bitrate=N/A speed=36.5x    frame=15258 fps=871 q=-0.0 size=N/A time=00:10:36.38 bitrate=N/A speed=36.3x    frame=15717 fps=871 q=-0.0 size=N/A time=00:10:55.52 bitrate=N/A speed=36.3x    frame=16123 fps=869 q=-0.0 size=N/A time=00:11:12.46 bitrate=N/A speed=36.2x    frame=16472 fps=864 q=-0.0 size=N/A time=00:11:27.01 bitrate=N/A speed=  36x    frame=16908 fps=863 q=-0.0 size=N/A time=00:11:45.20 bitrate=N/A speed=  36x    frame=17451 fps=868 q=-0.0 size=N/A time=00:12:07.85 bitrate=N/A speed=36.2x    frame=18041 fps=875 q=-0.0 size=N/A time=00:12:32.46 bitrate=N/A speed=36.5x    frame=18645 fps=882 q=-0.0 size=N/A time=00:12:57.65 bitrate=N/A speed=36.8x    frame=19263 fps=890 q=-0.0 size=N/A time=00:13:23.42 bitrate=N/A speed=37.1x    frame=19864 fps=896 q=-0.0 size=N/A time=00:13:48.49 bitrate=N/A speed=37.4x    frame=20434 fps=901 q=-0.0 size=N/A time=00:14:12.26 bitrate=N/A speed=37.6x    frame=20846 fps=898 q=-0.0 size=N/A time=00:14:29.45 bitrate=N/A speed=37.5x    frame=21301 fps=898 q=-0.0 size=N/A time=00:14:48.42 bitrate=N/A speed=37.5x    frame=21803 fps=900 q=-0.0 size=N/A time=00:15:09.36 bitrate=N/A speed=37.5x    frame=22301 fps=901 q=-0.0 size=N/A time=00:15:30.13 bitrate=N/A speed=37.6x    frame=22828 fps=904 q=-0.0 size=N/A time=00:15:52.11 bitrate=N/A speed=37.7x    frame=23442 fps=909 q=-0.0 size=N/A time=00:16:17.72 bitrate=N/A speed=37.9x    frame=23920 fps=910 q=-0.0 size=N/A time=00:16:37.66 bitrate=N/A speed=37.9x    frame=24465 fps=913 q=-0.0 size=N/A time=00:17:00.39 bitrate=N/A speed=38.1x    frame=25044 fps=916 q=-0.0 size=N/A time=00:17:24.54 bitrate=N/A speed=38.2x    frame=25527 fps=917 q=-0.0 size=N/A time=00:17:44.68 bitrate=N/A speed=38.2x    frame=25964 fps=916 q=-0.0 size=N/A time=00:18:02.91 bitrate=N/A speed=38.2x    frame=26417 fps=915 q=-0.0 size=N/A time=00:18:21.80 bitrate=N/A speed=38.2x    frame=26965 fps=918 q=-0.0 size=N/A time=00:18:44.66 bitrate=N/A speed=38.3x    frame=27549 fps=922 q=-0.0 size=N/A time=00:19:09.02 bitrate=N/A speed=38.4x    frame=28190 fps=927 q=-0.0 size=N/A time=00:19:35.75 bitrate=N/A speed=38.7x    frame=28799 fps=931 q=-0.0 size=N/A time=00:20:01.15 bitrate=N/A speed=38.8x    frame=29381 fps=934 q=-0.0 size=N/A time=00:20:25.43 bitrate=N/A speed=  39x    frame=30006 fps=939 q=-0.0 size=N/A time=00:20:51.50 bitrate=N/A speed=39.2x    frame=30580 fps=942 q=-0.0 size=N/A time=00:21:15.44 bitrate=N/A speed=39.3x    frame=31178 fps=945 q=-0.0 size=N/A time=00:21:40.38 bitrate=N/A speed=39.4x    frame=31758 fps=948 q=-0.0 size=N/A time=00:22:04.57 bitrate=N/A speed=39.5x    frame=32280 fps=949 q=-0.0 size=N/A time=00:22:26.34 bitrate=N/A speed=39.6x    frame=32863 fps=951 q=-0.0 size=N/A time=00:22:50.66 bitrate=N/A speed=39.7x    frame=33385 fps=952 q=-0.0 size=N/A time=00:23:12.43 bitrate=N/A speed=39.7x    frame=33788 fps=950 q=-0.0 size=N/A time=00:23:29.24 bitrate=N/A speed=39.6x    frame=34327 fps=951 q=-0.0 size=N/A time=00:23:51.72 bitrate=N/A speed=39.7x    [Parsed_psnr_10 @ 0000018c7a073000] PSNR y:39.050131 u:47.566355 v:47.097169 average:40.499476 min:9.956308 max:65.030356
[out#0/null @ 0000018c6e0da9c0] video:14835KiB audio:270020KiB subtitle:0KiB other streams:0KiB global headers:0KiB muxing overhead: unknown
frame=34526 fps=953 q=-0.0 Lsize=N/A time=00:24:00.02 bitrate=N/A speed=39.7x    
